<mxfile host="Electron" agent="Mozilla/5.0 (Windows NT 10.0; Win64; x64) AppleWebKit/537.36 (KHTML, like Gecko) draw.io/26.0.9 Chrome/128.0.6613.186 Electron/32.2.5 Safari/537.36" version="26.0.9">
  <diagram name="Page-1" id="fTHo57_Z8IG60SWLBZAo">
    <mxGraphModel dx="473" dy="305" grid="1" gridSize="10" guides="1" tooltips="1" connect="1" arrows="1" fold="1" page="1" pageScale="1" pageWidth="570" pageHeight="940" math="0" shadow="0">
      <root>
        <mxCell id="0" />
        <mxCell id="1" parent="0" />
        <mxCell id="HaqOvqNIpG2NRV8nGtdw-1" value="" style="rounded=1;whiteSpace=wrap;html=1;fillColor=#dae8fc;strokeWidth=2;strokeColor=#6c8ebf;" vertex="1" parent="1">
          <mxGeometry x="60" y="230" width="160" height="60" as="geometry" />
        </mxCell>
        <mxCell id="HaqOvqNIpG2NRV8nGtdw-2" value="" style="shape=flexArrow;endArrow=classic;html=1;rounded=0;" edge="1" parent="1">
          <mxGeometry width="50" height="50" relative="1" as="geometry">
            <mxPoint x="240" y="260" as="sourcePoint" />
            <mxPoint x="370" y="260" as="targetPoint" />
          </mxGeometry>
        </mxCell>
        <mxCell id="HaqOvqNIpG2NRV8nGtdw-3" value="&lt;span style=&quot;font-size: 14px;&quot;&gt;if(A=B) A==Z;&lt;/span&gt;" style="text;html=1;align=center;verticalAlign=middle;whiteSpace=wrap;rounded=0;" vertex="1" parent="1">
          <mxGeometry x="85" y="245" width="110" height="30" as="geometry" />
        </mxCell>
        <mxCell id="HaqOvqNIpG2NRV8nGtdw-4" value="" style="rounded=1;whiteSpace=wrap;html=1;fillColor=#dae8fc;strokeWidth=2;strokeColor=#6c8ebf;connectable=0;allowArrows=0;" vertex="1" parent="1">
          <mxGeometry x="390" y="230" width="160" height="60" as="geometry" />
        </mxCell>
        <mxCell id="HaqOvqNIpG2NRV8nGtdw-5" value="&lt;font style=&quot;font-size: 14px;&quot;&gt;if ( A = B ) A == Z ;&amp;nbsp;&lt;/font&gt;" style="text;html=1;align=center;verticalAlign=middle;whiteSpace=wrap;rounded=0;connectable=0;allowArrows=0;" vertex="1" parent="1">
          <mxGeometry x="415" y="245" width="125" height="30" as="geometry" />
        </mxCell>
        <mxCell id="HaqOvqNIpG2NRV8nGtdw-6" value="" style="endArrow=none;html=1;rounded=0;fillColor=#f8cecc;strokeColor=#b85450;" edge="1" parent="1">
          <mxGeometry width="50" height="50" relative="1" as="geometry">
            <mxPoint x="428.96" y="294" as="sourcePoint" />
            <mxPoint x="428.96" y="224" as="targetPoint" />
          </mxGeometry>
        </mxCell>
        <mxCell id="HaqOvqNIpG2NRV8nGtdw-7" value="" style="endArrow=none;html=1;rounded=0;fillColor=#f8cecc;strokeColor=#b85450;" edge="1" parent="1">
          <mxGeometry width="50" height="50" relative="1" as="geometry">
            <mxPoint x="436" y="294" as="sourcePoint" />
            <mxPoint x="436" y="224" as="targetPoint" />
          </mxGeometry>
        </mxCell>
        <mxCell id="HaqOvqNIpG2NRV8nGtdw-8" value="" style="endArrow=none;html=1;rounded=0;fillColor=#f8cecc;strokeColor=#b85450;" edge="1" parent="1">
          <mxGeometry width="50" height="50" relative="1" as="geometry">
            <mxPoint x="449" y="295" as="sourcePoint" />
            <mxPoint x="449" y="225" as="targetPoint" />
          </mxGeometry>
        </mxCell>
        <mxCell id="HaqOvqNIpG2NRV8nGtdw-9" value="" style="endArrow=none;html=1;rounded=0;fillColor=#f8cecc;strokeColor=#b85450;" edge="1" parent="1">
          <mxGeometry width="50" height="50" relative="1" as="geometry">
            <mxPoint x="460" y="295" as="sourcePoint" />
            <mxPoint x="460" y="225" as="targetPoint" />
          </mxGeometry>
        </mxCell>
        <mxCell id="HaqOvqNIpG2NRV8nGtdw-10" value="" style="endArrow=none;html=1;rounded=0;fillColor=#f8cecc;strokeColor=#b85450;" edge="1" parent="1">
          <mxGeometry width="50" height="50" relative="1" as="geometry">
            <mxPoint x="473" y="295" as="sourcePoint" />
            <mxPoint x="473" y="225" as="targetPoint" />
          </mxGeometry>
        </mxCell>
        <mxCell id="HaqOvqNIpG2NRV8nGtdw-11" value="" style="endArrow=none;html=1;rounded=0;fillColor=#f8cecc;strokeColor=#b85450;" edge="1" parent="1">
          <mxGeometry width="50" height="50" relative="1" as="geometry">
            <mxPoint x="482" y="295" as="sourcePoint" />
            <mxPoint x="482" y="225" as="targetPoint" />
          </mxGeometry>
        </mxCell>
        <mxCell id="HaqOvqNIpG2NRV8nGtdw-12" value="" style="sketch=0;html=1;aspect=fixed;strokeColor=none;shadow=0;align=center;fillColor=#2D9C5E;verticalAlign=top;labelPosition=center;verticalLabelPosition=bottom;shape=mxgraph.gcp2.check" vertex="1" parent="1">
          <mxGeometry x="418" y="217" width="8" height="6.39" as="geometry" />
        </mxCell>
        <mxCell id="HaqOvqNIpG2NRV8nGtdw-13" value="" style="endArrow=none;html=1;rounded=0;fillColor=#f8cecc;strokeColor=#b85450;" edge="1" parent="1">
          <mxGeometry width="50" height="50" relative="1" as="geometry">
            <mxPoint x="415" y="294" as="sourcePoint" />
            <mxPoint x="415" y="224" as="targetPoint" />
          </mxGeometry>
        </mxCell>
        <mxCell id="HaqOvqNIpG2NRV8nGtdw-19" value="Lexical Analysis" style="text;html=1;align=center;verticalAlign=middle;whiteSpace=wrap;rounded=0;" vertex="1" parent="1">
          <mxGeometry x="249" y="280" width="100" height="30" as="geometry" />
        </mxCell>
        <mxCell id="HaqOvqNIpG2NRV8nGtdw-20" value="&amp;nbsp; Tokens =&lt;font style=&quot;font-size: 17px;&quot;&gt; [&lt;/font&gt;&lt;font size=&quot;1&quot; style=&quot;&quot;&gt;if,(,A,=,B,),A,==,Z,;&lt;/font&gt;&lt;font style=&quot;font-size: 17px;&quot;&gt;]&lt;/font&gt;" style="text;html=1;align=left;verticalAlign=middle;whiteSpace=wrap;rounded=0;" vertex="1" parent="1">
          <mxGeometry x="388" y="308" width="160" height="30" as="geometry" />
        </mxCell>
        <mxCell id="HaqOvqNIpG2NRV8nGtdw-21" value="" style="endArrow=none;html=1;rounded=0;fillColor=#f8cecc;strokeColor=#b85450;" edge="1" parent="1">
          <mxGeometry width="50" height="50" relative="1" as="geometry">
            <mxPoint x="494" y="295" as="sourcePoint" />
            <mxPoint x="494" y="225" as="targetPoint" />
          </mxGeometry>
        </mxCell>
        <mxCell id="HaqOvqNIpG2NRV8nGtdw-22" value="" style="endArrow=none;html=1;rounded=0;fillColor=#f8cecc;strokeColor=#b85450;" edge="1" parent="1">
          <mxGeometry width="50" height="50" relative="1" as="geometry">
            <mxPoint x="514" y="295" as="sourcePoint" />
            <mxPoint x="514" y="225" as="targetPoint" />
          </mxGeometry>
        </mxCell>
        <mxCell id="HaqOvqNIpG2NRV8nGtdw-23" value="" style="endArrow=none;html=1;rounded=0;fillColor=#f8cecc;strokeColor=#b85450;" edge="1" parent="1">
          <mxGeometry width="50" height="50" relative="1" as="geometry">
            <mxPoint x="527" y="295" as="sourcePoint" />
            <mxPoint x="527" y="225" as="targetPoint" />
          </mxGeometry>
        </mxCell>
        <mxCell id="HaqOvqNIpG2NRV8nGtdw-24" value="" style="endArrow=none;html=1;rounded=0;fillColor=#f8cecc;strokeColor=#b85450;" edge="1" parent="1">
          <mxGeometry width="50" height="50" relative="1" as="geometry">
            <mxPoint x="535" y="295" as="sourcePoint" />
            <mxPoint x="535" y="225" as="targetPoint" />
          </mxGeometry>
        </mxCell>
        <mxCell id="HaqOvqNIpG2NRV8nGtdw-27" value="" style="sketch=0;html=1;aspect=fixed;strokeColor=none;shadow=0;align=center;fillColor=#2D9C5E;verticalAlign=top;labelPosition=center;verticalLabelPosition=bottom;shape=mxgraph.gcp2.check" vertex="1" parent="1">
          <mxGeometry x="429" y="217" width="8" height="6.39" as="geometry" />
        </mxCell>
        <mxCell id="HaqOvqNIpG2NRV8nGtdw-28" value="" style="sketch=0;html=1;aspect=fixed;strokeColor=none;shadow=0;align=center;fillColor=#2D9C5E;verticalAlign=top;labelPosition=center;verticalLabelPosition=bottom;shape=mxgraph.gcp2.check" vertex="1" parent="1">
          <mxGeometry x="439" y="217" width="8" height="6.39" as="geometry" />
        </mxCell>
        <mxCell id="HaqOvqNIpG2NRV8nGtdw-29" value="" style="sketch=0;html=1;aspect=fixed;strokeColor=none;shadow=0;align=center;fillColor=#2D9C5E;verticalAlign=top;labelPosition=center;verticalLabelPosition=bottom;shape=mxgraph.gcp2.check" vertex="1" parent="1">
          <mxGeometry x="451" y="217" width="8" height="6.39" as="geometry" />
        </mxCell>
        <mxCell id="HaqOvqNIpG2NRV8nGtdw-30" value="" style="sketch=0;html=1;aspect=fixed;strokeColor=none;shadow=0;align=center;fillColor=#2D9C5E;verticalAlign=top;labelPosition=center;verticalLabelPosition=bottom;shape=mxgraph.gcp2.check" vertex="1" parent="1">
          <mxGeometry x="463" y="217" width="8" height="6.39" as="geometry" />
        </mxCell>
        <mxCell id="HaqOvqNIpG2NRV8nGtdw-31" value="" style="sketch=0;html=1;aspect=fixed;strokeColor=none;shadow=0;align=center;fillColor=#2D9C5E;verticalAlign=top;labelPosition=center;verticalLabelPosition=bottom;shape=mxgraph.gcp2.check" vertex="1" parent="1">
          <mxGeometry x="473.5" y="217" width="8" height="6.39" as="geometry" />
        </mxCell>
        <mxCell id="HaqOvqNIpG2NRV8nGtdw-32" value="" style="sketch=0;html=1;aspect=fixed;strokeColor=none;shadow=0;align=center;fillColor=#2D9C5E;verticalAlign=top;labelPosition=center;verticalLabelPosition=bottom;shape=mxgraph.gcp2.check" vertex="1" parent="1">
          <mxGeometry x="484.5" y="217" width="8" height="6.39" as="geometry" />
        </mxCell>
        <mxCell id="HaqOvqNIpG2NRV8nGtdw-33" value="" style="sketch=0;html=1;aspect=fixed;strokeColor=none;shadow=0;align=center;fillColor=#2D9C5E;verticalAlign=top;labelPosition=center;verticalLabelPosition=bottom;shape=mxgraph.gcp2.check" vertex="1" parent="1">
          <mxGeometry x="500.5" y="217" width="8" height="6.39" as="geometry" />
        </mxCell>
        <mxCell id="HaqOvqNIpG2NRV8nGtdw-34" value="" style="sketch=0;html=1;aspect=fixed;strokeColor=none;shadow=0;align=center;fillColor=#2D9C5E;verticalAlign=top;labelPosition=center;verticalLabelPosition=bottom;shape=mxgraph.gcp2.check" vertex="1" parent="1">
          <mxGeometry x="516.5" y="217" width="8" height="6.39" as="geometry" />
        </mxCell>
        <mxCell id="HaqOvqNIpG2NRV8nGtdw-35" value="" style="sketch=0;html=1;aspect=fixed;strokeColor=none;shadow=0;align=center;fillColor=#2D9C5E;verticalAlign=top;labelPosition=center;verticalLabelPosition=bottom;shape=mxgraph.gcp2.check" vertex="1" parent="1">
          <mxGeometry x="527.5" y="217" width="8" height="6.39" as="geometry" />
        </mxCell>
        <mxCell id="HaqOvqNIpG2NRV8nGtdw-36" value="" style="shape=flexArrow;endArrow=classic;html=1;rounded=0;" edge="1" parent="1">
          <mxGeometry width="50" height="50" relative="1" as="geometry">
            <mxPoint x="580" y="259.75" as="sourcePoint" />
            <mxPoint x="710" y="259.75" as="targetPoint" />
          </mxGeometry>
        </mxCell>
        <mxCell id="HaqOvqNIpG2NRV8nGtdw-37" value="Syntactic Analysis" style="text;html=1;align=center;verticalAlign=middle;whiteSpace=wrap;rounded=0;" vertex="1" parent="1">
          <mxGeometry x="590" y="280" width="100" height="30" as="geometry" />
        </mxCell>
        <mxCell id="HaqOvqNIpG2NRV8nGtdw-38" value="" style="rounded=1;whiteSpace=wrap;html=1;fillColor=#f8cecc;strokeWidth=2;strokeColor=#b85450;connectable=0;allowArrows=0;" vertex="1" parent="1">
          <mxGeometry x="740" y="230" width="230" height="60" as="geometry" />
        </mxCell>
        <mxCell id="HaqOvqNIpG2NRV8nGtdw-39" value="&lt;font style=&quot;font-size: 10px;&quot;&gt;&lt;font style=&quot;&quot;&gt;The order is wrong , we did an assignment inside an if , and an equal&amp;nbsp;&lt;/font&gt;&lt;span style=&quot;background-color: transparent; color: light-dark(rgb(0, 0, 0), rgb(255, 255, 255));&quot;&gt;operation outside of any loop or if statment&lt;/span&gt;&lt;/font&gt;" style="text;html=1;align=left;verticalAlign=middle;whiteSpace=wrap;rounded=0;" vertex="1" parent="1">
          <mxGeometry x="746" y="238" width="220" height="45" as="geometry" />
        </mxCell>
      </root>
    </mxGraphModel>
  </diagram>
</mxfile>
